# Blender v2.76 (sub 0) OBJ File: 'untitled.blend'
# www.blender.org
v 3.243758 -0.876791 1.013945
v 3.967366 -0.324011 1.539670
v 2.967370 -0.324011 1.864594
v 2.349332 -0.324007 1.013945
v 2.967370 -0.324011 0.163295
v 3.967366 -0.324011 0.488219
v 3.464688 0.415549 1.702964
v 2.886408 0.218132 1.333111
v 2.748207 0.351387 0.626635
v 3.388227 0.329676 0.522193
v 3.675625 0.277597 0.950989
v 3.304519 0.351090 0.867494
v 3.081303 -0.727446 1.513940
v 3.669081 -0.727446 1.322956
v 3.506627 -0.402529 1.822956
v 4.094406 -0.402527 1.013945
v 3.669081 -0.727446 0.704933
v 2.718029 -0.727443 1.013945
v 2.555569 -0.402528 1.513942
v 3.081303 -0.727446 0.513949
v 2.555569 -0.402528 0.513948
v 3.506627 -0.402529 0.204933
v 4.079121 0.085487 1.292114
v 3.691770 -0.049729 0.887422
v 3.243756 0.102246 1.921642
v 3.824682 0.121860 1.814861
v 2.401309 0.087896 1.293961
v 2.662457 0.122091 1.815150
v 2.984857 0.048579 0.642771
v 2.787458 -0.046621 0.884071
v 3.493024 0.045854 0.649198
v 3.243758 0.123209 0.104028
v 3.617796 0.217890 1.348653
v 3.041885 0.462862 1.648928
v 2.840397 0.372246 0.952748
v 3.070177 0.494554 0.470629
v 3.598585 0.368285 0.713313
v 3.403311 0.123042 1.224555
v 3.558586 0.493255 0.958701
v 3.129691 0.470925 1.093401
v 2.982970 0.439450 0.773902
v 3.350024 0.336891 0.783001
vt 0.300513 0.737846
vt 0.239969 0.591559
vt 0.377206 0.623265
vt 0.148614 0.470065
vt 0.063332 0.591558
vt 0.723512 0.216518
vt 0.734899 0.071731
vt 0.852847 0.138925
vt 0.831063 0.320244
vt 0.235866 0.877938
vt 0.152617 0.748955
vt 0.025631 0.491922
vt 0.600988 0.722750
vt 0.686419 0.854720
vt 0.521887 0.849181
vt 0.548353 0.510340
vt 0.580999 0.584260
vt 0.440873 0.587970
vt 0.568023 0.510340
vt 0.453769 0.404493
vt 0.626609 0.350508
vt 0.069034 0.064536
vt 0.171597 0.005348
vt 0.230016 0.143577
vt 0.014480 0.369906
vt 0.074343 0.299791
vt 0.109697 0.465866
vt 0.450295 0.690832
vt 0.411055 0.250815
vt 0.487367 0.147198
vt 0.561081 0.281889
vt 0.707701 0.507728
vt 0.157099 0.200358
vt 0.814610 0.510340
vt 0.797617 0.626543
vt 0.727704 0.647897
vt 0.621079 0.138823
vt 0.692974 0.036686
vt 0.723512 0.198908
vt 0.622419 0.332670
vt 0.642128 0.239064
vt 0.689269 0.290036
vt 0.309386 0.117645
vt 0.411055 0.122747
vt 0.305542 0.195564
vt 0.214645 0.225868
vt 0.259837 0.162663
vt 0.277796 0.238426
vt 0.814610 0.728685
vt 0.732864 0.766346
vt 0.729160 0.738566
vt 0.790276 0.804069
vt 0.728015 0.843874
vt 0.404908 0.214435
vt 0.313678 0.222799
vt 0.723512 0.376525
vt 0.361483 0.299996
vt 0.233456 0.316919
vt 0.350612 0.465866
vt 0.246288 0.458118
vt 0.196316 0.343315
vt 0.893402 0.877072
vt 0.824130 0.835625
vt 0.893402 0.793186
vt 0.814610 0.782078
vt 0.326810 0.000000
vt 0.909591 0.510340
vt 0.919627 0.687865
vt 0.837690 0.613740
vt 0.814610 0.707079
vt 0.545429 0.000000
vt 0.411055 0.822121
vt 0.472225 0.932141
vt 0.840384 0.474699
vt 0.962939 0.402964
vt 1.000000 0.476042
vt 0.919627 0.782078
vt 0.588412 1.000000
vt 0.727704 0.970472
vt 0.000000 0.208962
vt 0.059228 0.877938
vt 0.000000 0.737844
vt 0.993579 0.248514
vt 1.000000 0.094484
vt 0.897414 0.000000
vt 0.727704 0.686262
vt 0.287922 0.465866
vn 0.102400 -0.943500 0.315100
vn 0.700200 -0.661700 0.268000
vn -0.268000 -0.943500 0.194700
vn -0.268000 -0.943500 -0.194700
vn 0.102400 -0.943500 -0.315100
vn 0.962000 -0.111900 0.249200
vn 0.051900 -0.165500 0.984800
vn -0.923700 -0.128700 0.360800
vn -0.552200 0.668000 -0.498900
vn 0.298800 0.676200 -0.673400
vn 0.899500 0.018400 0.436500
vn -0.180700 -0.014500 0.983400
vn -0.528800 0.521800 -0.669400
vn -0.821800 0.464100 -0.330600
vn 0.573900 0.803900 -0.156200
vn -0.081700 0.854900 -0.512200
vn -0.767000 0.631800 -0.112100
vn -0.376700 0.925100 0.047300
vn 0.454500 0.889800 0.042000
vn 0.872900 0.477300 -0.100800
vn -0.362800 0.867200 -0.341100
vn -0.239400 0.848900 -0.471300
vn -0.138300 0.989200 -0.047600
vn 0.269400 0.962900 -0.016700
vn 0.255400 0.935700 0.243500
vn -0.382200 0.922300 0.057700
vn 0.321100 0.916700 -0.237800
vn -0.352300 0.933300 0.069800
vn -0.458900 0.802700 0.380800
vn 0.726300 0.652600 0.215900
vn 0.755300 0.642600 0.128700
vn 0.160900 0.832700 -0.529800
vn -0.549200 0.627100 0.552400
vn -0.579700 0.621500 0.526900
vn 0.864900 0.462400 0.195200
vn 0.957100 0.100000 -0.272100
vn 0.740800 -0.110800 -0.662500
vn 0.678100 -0.076700 -0.730900
vn 0.458700 0.723600 -0.515700
vn -0.901600 0.005500 -0.432500
vn -0.309700 -0.290300 -0.905500
vn -0.960700 0.077700 0.266600
vn -0.679100 0.201600 -0.705900
vn -0.268000 0.881200 0.389500
vn -0.700600 0.688200 -0.188400
vn -0.132300 0.549700 0.824800
vn -0.037200 0.589400 0.807000
vn 0.651200 0.746700 -0.135200
vn 0.283200 0.956400 0.071300
vn 0.291900 0.938700 0.183400
vn 0.906200 0.159300 -0.391700
vn 0.864700 0.366500 -0.343400
vn 0.052400 -0.162900 -0.985200
vn -0.574100 -0.483900 -0.660500
vn -0.660400 0.703500 -0.262700
vn -0.572900 0.739900 -0.352500
vn -0.263900 0.962100 0.069100
vn -0.889300 -0.077600 0.450700
vn -0.580300 -0.313300 0.751700
vn 0.140500 0.498200 0.855600
vn 0.183100 -0.095900 0.978400
vn 0.535600 -0.312700 0.784400
vn 0.682400 0.171600 -0.710500
vn 0.583600 0.415900 -0.697500
vn 0.667100 0.743300 -0.050200
vn 0.471300 -0.661700 -0.583100
vn 0.187600 -0.794700 -0.577300
vn -0.038500 -0.661700 -0.748800
vn -0.408900 -0.661700 -0.628400
vn -0.491100 -0.794700 -0.356800
vn -0.724000 -0.661700 -0.194700
vn -0.724000 -0.661700 0.194700
vn -0.491100 -0.794700 0.356800
vn -0.408900 -0.661700 0.628400
vn 0.700200 -0.661700 -0.268000
vn 0.607100 -0.794700 0.000000
vn 0.331300 -0.943500 0.000000
vn -0.038500 -0.661700 0.748800
vn 0.187600 -0.794700 0.577300
vn 0.471300 -0.661700 0.583100
s off
f 1/1/1 14/2/1 13/3/1
f 2/4/2 14/2/2 16/5/2
f 1/6/3 13/7/3 18/8/3
f 1/6/4 18/8/4 20/9/4
f 1/1/5 20/10/5 17/11/5
f 2/4/6 16/5/6 23/12/6
f 3/13/7 15/14/7 25/15/7
f 4/16/8 19/17/8 27/18/8
f 5/19/9 21/20/9 29/21/9
f 6/22/10 22/23/10 31/24/10
f 2/25/11 23/26/11 26/27/11
f 3/13/12 25/15/12 28/28/12
f 4/29/13 27/30/13 30/31/13
f 5/19/14 29/21/14 32/32/14
f 6/22/15 31/24/15 24/33/15
f 7/34/16 33/35/16 38/36/16
f 8/37/17 34/38/17 40/39/17
f 9/40/18 35/41/18 41/42/18
f 10/43/19 36/44/19 42/45/19
f 11/46/20 37/47/20 39/48/20
f 39/49/21 42/50/21 12/51/21
f 39/49/22 37/52/22 42/50/22
f 37/52/23 10/53/23 42/50/23
f 42/45/24 41/54/24 12/55/24
f 42/45/25 36/44/25 41/54/25
f 36/56/26 9/40/26 41/42/26
f 41/54/27 40/57/27 12/55/27
f 41/42/28 35/41/28 40/39/28
f 35/41/29 8/37/29 40/39/29
f 40/57/30 38/58/30 12/55/30
f 40/57/31 34/59/31 38/58/31
f 34/59/32 7/60/32 38/58/32
f 38/36/33 39/49/33 12/51/33
f 38/36/34 33/35/34 39/49/34
f 33/61/35 11/46/35 39/48/35
f 24/33/36 37/47/36 11/46/36
f 24/62/37 31/63/37 37/64/37
f 31/63/38 10/65/38 37/64/38
f 32/66/39 36/44/39 10/43/39
f 32/67/40 29/68/40 36/69/40
f 29/68/41 9/70/41 36/69/41
f 30/31/42 35/41/42 9/40/42
f 30/31/43 27/30/43 35/41/43
f 27/30/44 8/37/44 35/41/44
f 28/71/45 34/38/45 8/37/45
f 28/28/46 25/15/46 34/72/46
f 25/15/47 7/73/47 34/72/47
f 26/27/48 33/61/48 7/60/48
f 26/27/49 23/26/49 33/61/49
f 23/26/50 11/46/50 33/61/50
f 31/24/51 32/66/51 10/43/51
f 31/24/52 22/23/52 32/66/52
f 22/74/53 5/75/53 32/76/53
f 29/68/54 30/77/54 9/70/54
f 29/21/55 21/20/55 30/31/55
f 21/20/56 4/29/56 30/31/56
f 27/30/57 28/71/57 8/37/57
f 27/18/58 19/17/58 28/28/58
f 19/17/59 3/13/59 28/28/59
f 25/15/60 26/78/60 7/73/60
f 25/15/61 15/14/61 26/78/61
f 15/14/62 2/79/62 26/78/62
f 23/26/63 24/33/63 11/46/63
f 23/26/64 16/80/64 24/33/64
f 16/80/65 6/22/65 24/33/65
f 17/11/66 22/81/66 6/82/66
f 17/11/67 20/10/67 22/81/67
f 20/9/68 5/75/68 22/74/68
f 20/9/69 21/83/69 5/75/69
f 20/9/70 18/8/70 21/83/70
f 18/8/71 4/84/71 21/83/71
f 18/8/72 19/85/72 4/84/72
f 18/8/73 13/7/73 19/85/73
f 13/86/74 3/13/74 19/17/74
f 16/5/75 17/11/75 6/82/75
f 16/5/76 14/2/76 17/11/76
f 14/2/77 1/1/77 17/11/77
f 13/86/78 15/14/78 3/13/78
f 13/3/79 14/2/79 15/87/79
f 14/2/80 2/4/80 15/87/80